<?xml version="1.0" encoding="UTF-8"?>
<!DOCTYPE svg  PUBLIC '-//W3C//DTD SVG 1.1//EN'  'http://www.w3.org/Graphics/SVG/1.1/DTD/svg11.dtd'>
<svg width="460.8pt" height="345.6pt" version="1.1" viewBox="0 0 460.8 345.6" xmlns="http://www.w3.org/2000/svg" xmlns:xlink="http://www.w3.org/1999/xlink">
 <metadata>
  <rdf:RDF xmlns:cc="http://creativecommons.org/ns#" xmlns:dc="http://purl.org/dc/elements/1.1/" xmlns:rdf="http://www.w3.org/1999/02/22-rdf-syntax-ns#">
   <cc:Work>
    <dc:type rdf:resource="http://purl.org/dc/dcmitype/StillImage"/>
    <dc:date>2024-02-24T19:57:41.836909</dc:date>
    <dc:format>image/svg+xml</dc:format>
    <dc:creator>
     <cc:Agent>
      <dc:title>Matplotlib v3.6.3, https://matplotlib.org/</dc:title>
     </cc:Agent>
    </dc:creator>
   </cc:Work>
  </rdf:RDF>
 </metadata>
 <defs>
  <style type="text/css">*{stroke-linejoin: round; stroke-linecap: butt}</style>
 </defs>
 <g id="figure_1">
  <g id="patch_1">
   <path d="m0 345.6h460.8v-345.6h-460.8z" fill="#fff" fill-opacity=".8"/>
  </g>
  <g id="axes_1">
   <g id="patch_2">
    <path d="m57.6 307.58h357.12v-266.11h-357.12z" fill="#fff"/>
   </g>
   <g id="matplotlib.axis_1">
    <g id="xtick_1">
     <g id="line2d_1">
      <defs>
       <path id="mbe040776eb" d="m0 0v3.5" stroke="#000" stroke-width=".8"/>
      </defs>
      <use x="57.6" y="307.584" stroke="#000000" stroke-width=".8" xlink:href="#mbe040776eb"/>
     </g>
     <g id="text_1">
      <!-- 0 -->
      <g transform="translate(54.419 322.18) scale(.1 -.1)">
       <defs>
        <path id="DejaVuSans-30" transform="scale(.015625)" d="m2034 4250q-487 0-733-480-245-479-245-1442 0-959 245-1439 246-480 733-480 491 0 736 480 246 480 246 1439 0 963-246 1442-245 480-736 480zm0 500q785 0 1199-621 414-620 414-1801 0-1178-414-1799-414-620-1199-620-784 0-1198 620-414 621-414 1799 0 1181 414 1801 414 621 1198 621z"/>
       </defs>
       <use xlink:href="#DejaVuSans-30"/>
      </g>
     </g>
    </g>
    <g id="xtick_2">
     <g id="line2d_2">
      <use x="102.24" y="307.584" stroke="#000000" stroke-width=".8" xlink:href="#mbe040776eb"/>
     </g>
     <g id="text_2">
      <!-- 1 -->
      <g transform="translate(99.059 322.18) scale(.1 -.1)">
       <defs>
        <path id="DejaVuSans-31" transform="scale(.015625)" d="m794 531h1031v3560l-1122-225v575l1116 225h631v-4135h1031v-531h-2687v531z"/>
       </defs>
       <use xlink:href="#DejaVuSans-31"/>
      </g>
     </g>
    </g>
    <g id="xtick_3">
     <g id="line2d_3">
      <use x="146.88" y="307.584" stroke="#000000" stroke-width=".8" xlink:href="#mbe040776eb"/>
     </g>
     <g id="text_3">
      <!-- 2 -->
      <g transform="translate(143.7 322.18) scale(.1 -.1)">
       <defs>
        <path id="DejaVuSans-32" transform="scale(.015625)" d="m1228 531h2203v-531h-2962v531q359 372 979 998 621 627 780 809 303 340 423 576 121 236 121 464 0 372-261 606-261 235-680 235-297 0-627-103-329-103-704-313v638q381 153 712 231 332 78 607 78 725 0 1156-363 431-362 431-968 0-288-108-546-107-257-392-607-78-91-497-524-418-433-1181-1211z"/>
       </defs>
       <use xlink:href="#DejaVuSans-32"/>
      </g>
     </g>
    </g>
    <g id="xtick_4">
     <g id="line2d_4">
      <use x="191.52" y="307.584" stroke="#000000" stroke-width=".8" xlink:href="#mbe040776eb"/>
     </g>
     <g id="text_4">
      <!-- 3 -->
      <g transform="translate(188.34 322.18) scale(.1 -.1)">
       <defs>
        <path id="DejaVuSans-33" transform="scale(.015625)" d="m2597 2516q453-97 707-404 255-306 255-756 0-690-475-1069-475-378-1350-378-293 0-604 58t-642 174v609q262-153 574-231 313-78 654-78 593 0 904 234t311 681q0 413-289 645-289 233-804 233h-544v519h569q465 0 712 186t247 536q0 359-255 551-254 193-729 193-260 0-557-57-297-56-653-174v562q360 100 674 150t592 50q719 0 1137-327 419-326 419-882 0-388-222-655t-631-370z"/>
       </defs>
       <use xlink:href="#DejaVuSans-33"/>
      </g>
     </g>
    </g>
    <g id="xtick_5">
     <g id="line2d_5">
      <use x="236.16" y="307.584" stroke="#000000" stroke-width=".8" xlink:href="#mbe040776eb"/>
     </g>
     <g id="text_5">
      <!-- 4 -->
      <g transform="translate(232.98 322.18) scale(.1 -.1)">
       <defs>
        <path id="DejaVuSans-34" transform="scale(.015625)" d="m2419 4116-1594-2491h1594v2491zm-166 550h794v-3041h666v-525h-666v-1100h-628v1100h-2106v609l1940 2957z"/>
       </defs>
       <use xlink:href="#DejaVuSans-34"/>
      </g>
     </g>
    </g>
    <g id="xtick_6">
     <g id="line2d_6">
      <use x="280.8" y="307.584" stroke="#000000" stroke-width=".8" xlink:href="#mbe040776eb"/>
     </g>
     <g id="text_6">
      <!-- 5 -->
      <g transform="translate(277.62 322.18) scale(.1 -.1)">
       <defs>
        <path id="DejaVuSans-35" transform="scale(.015625)" d="m691 4666h2478v-532h-1900v-1143q137 47 274 70 138 23 276 23 781 0 1237-428 457-428 457-1159 0-753-469-1171-469-417-1322-417-294 0-599 50-304 50-629 150v635q281-153 581-228t634-75q541 0 856 284 316 284 316 772 0 487-316 771-315 285-856 285-253 0-505-56-251-56-513-175v2344z"/>
       </defs>
       <use xlink:href="#DejaVuSans-35"/>
      </g>
     </g>
    </g>
    <g id="xtick_7">
     <g id="line2d_7">
      <use x="325.44" y="307.584" stroke="#000000" stroke-width=".8" xlink:href="#mbe040776eb"/>
     </g>
     <g id="text_7">
      <!-- 6 -->
      <g transform="translate(322.26 322.18) scale(.1 -.1)">
       <defs>
        <path id="DejaVuSans-36" transform="scale(.015625)" d="m2113 2584q-425 0-674-291-248-290-248-796 0-503 248-796 249-292 674-292t673 292q248 293 248 796 0 506-248 796-248 291-673 291zm1253 1979v-575q-238 112-480 171-242 60-480 60-625 0-955-422-329-422-376-1275 184 272 462 417 279 145 613 145 703 0 1111-427 408-426 408-1160 0-719-425-1154-425-434-1131-434-810 0-1238 620-428 621-428 1799 0 1106 525 1764t1409 658q238 0 480-47t505-140z"/>
       </defs>
       <use xlink:href="#DejaVuSans-36"/>
      </g>
     </g>
    </g>
    <g id="xtick_8">
     <g id="line2d_8">
      <use x="370.08" y="307.584" stroke="#000000" stroke-width=".8" xlink:href="#mbe040776eb"/>
     </g>
     <g id="text_8">
      <!-- 7 -->
      <g transform="translate(366.9 322.18) scale(.1 -.1)">
       <defs>
        <path id="DejaVuSans-37" transform="scale(.015625)" d="m525 4666h3e3v-269l-1694-4397h-659l1594 4134h-2241v532z"/>
       </defs>
       <use xlink:href="#DejaVuSans-37"/>
      </g>
     </g>
    </g>
    <g id="xtick_9">
     <g id="line2d_9">
      <use x="414.72" y="307.584" stroke="#000000" stroke-width=".8" xlink:href="#mbe040776eb"/>
     </g>
     <g id="text_9">
      <!-- 8 -->
      <g transform="translate(411.54 322.18) scale(.1 -.1)">
       <defs>
        <path id="DejaVuSans-38" transform="scale(.015625)" d="m2034 2216q-450 0-708-241-257-241-257-662 0-422 257-663 258-241 708-241t709 242q260 243 260 662 0 421-258 662-257 241-711 241zm-631 268q-406 100-633 378-226 279-226 679 0 559 398 884 399 325 1092 325 697 0 1094-325t397-884q0-400-227-679-226-278-629-378 456-106 710-416 255-309 255-755 0-679-414-1042-414-362-1186-362-771 0-1186 362-414 363-414 1042 0 446 256 755 257 310 713 416zm-231 997q0-362 226-565 227-203 636-203 407 0 636 203 230 203 230 565 0 363-230 566-229 203-636 203-409 0-636-203-226-203-226-566z"/>
       </defs>
       <use xlink:href="#DejaVuSans-38"/>
      </g>
     </g>
    </g>
    <g id="text_10">
     <!-- entropy of the distribution of function values -->
     <g transform="translate(124.26 335.86) scale(.1 -.1)">
      <defs>
       <path id="DejaVuSans-65" transform="scale(.015625)" d="m3597 1894v-281h-2644q38-594 358-905t892-311q331 0 642 81t618 244v-544q-310-131-635-200t-659-69q-838 0-1327 487-489 488-489 1320 0 859 464 1363 464 505 1252 505 706 0 1117-455 411-454 411-1235zm-575 169q-6 471-264 752-258 282-683 282-481 0-770-272t-333-766l2050 4z"/>
       <path id="DejaVuSans-6e" transform="scale(.015625)" d="m3513 2113v-2113h-575v2094q0 497-194 743-194 247-581 247-466 0-735-297-269-296-269-809v-1978h-578v3500h578v-544q207 316 486 472 280 156 646 156 603 0 912-373 310-373 310-1098z"/>
       <path id="DejaVuSans-74" transform="scale(.015625)" d="m1172 4494v-994h1184v-447h-1184v-1900q0-428 117-550t477-122h590v-481h-590q-666 0-919 248-253 249-253 905v1900h-422v447h422v994h578z"/>
       <path id="DejaVuSans-72" transform="scale(.015625)" d="m2631 2963q-97 56-211 82-114 27-251 27-488 0-749-317t-261-911v-1844h-578v3500h578v-544q182 319 472 473 291 155 707 155 59 0 131-8 72-7 159-23l3-590z"/>
       <path id="DejaVuSans-6f" transform="scale(.015625)" d="m1959 3097q-462 0-731-361t-269-989 267-989q268-361 733-361 460 0 728 362 269 363 269 988 0 622-269 986-268 364-728 364zm0 487q750 0 1178-488 429-487 429-1349 0-859-429-1349-428-489-1178-489-753 0-1180 489-426 490-426 1349 0 862 426 1349 427 488 1180 488z"/>
       <path id="DejaVuSans-70" transform="scale(.015625)" d="m1159 525v-1856h-578v4831h578v-531q182 312 458 463 277 152 661 152 638 0 1036-506 399-506 399-1331t-399-1332q-398-506-1036-506-384 0-661 152-276 152-458 464zm1957 1222q0 634-261 995t-717 361q-457 0-718-361t-261-995 261-995 718-361q456 0 717 361t261 995z"/>
       <path id="DejaVuSans-79" transform="scale(.015625)" d="m2059-325q-243-625-475-815-231-191-618-191h-460v481h338q237 0 368 113 132 112 291 531l103 262-1415 3444h609l1094-2737 1094 2737h609l-1538-3825z"/>
       <path id="DejaVuSans-66" transform="scale(.015625)" d="m2375 4863v-479h-550q-309 0-430-125-120-125-120-450v-309h947v-447h-947v-3053h-578v3053h-550v447h550v244q0 584 272 851 272 268 862 268h544z"/>
       <path id="DejaVuSans-68" transform="scale(.015625)" d="m3513 2113v-2113h-575v2094q0 497-194 743-194 247-581 247-466 0-735-297-269-296-269-809v-1978h-578v4863h578v-1907q207 316 486 472 280 156 646 156 603 0 912-373 310-373 310-1098z"/>
       <path id="DejaVuSans-64" transform="scale(.015625)" d="m2906 2969v1894h575v-4863h-575v525q-181-312-458-464-276-152-664-152-634 0-1033 506-398 507-398 1332t398 1331q399 506 1033 506 388 0 664-152 277-151 458-463zm-1959-1222q0-634 261-995t717-361 718 361q263 361 263 995t-263 995q-262 361-718 361t-717-361-261-995z"/>
       <path id="DejaVuSans-69" transform="scale(.015625)" d="m603 3500h575v-3500h-575v3500zm0 1363h575v-729h-575v729z"/>
       <path id="DejaVuSans-73" transform="scale(.015625)" d="m2834 3397v-544q-243 125-506 187-262 63-544 63-428 0-642-131t-214-394q0-200 153-314t616-217l197-44q612-131 870-370t258-667q0-488-386-773-386-284-1061-284-281 0-586 55t-642 164v594q319-166 628-249 309-82 613-82 406 0 624 139 219 139 219 392 0 234-158 359-157 125-692 241l-200 47q-534 112-772 345-237 233-237 639 0 494 350 762 350 269 994 269 318 0 599-47 282-46 519-140z"/>
       <path id="DejaVuSans-62" transform="scale(.015625)" d="m3116 1747q0 634-261 995t-717 361q-457 0-718-361t-261-995 261-995 718-361q456 0 717 361t261 995zm-1957 1222q182 312 458 463 277 152 661 152 638 0 1036-506 399-506 399-1331t-399-1332q-398-506-1036-506-384 0-661 152-276 152-458 464v-525h-578v4863h578v-1894z"/>
       <path id="DejaVuSans-75" transform="scale(.015625)" d="m544 1381v2119h575v-2097q0-497 193-746 194-248 582-248 465 0 735 297 271 297 271 810v1984h575v-3500h-575v538q-209-319-486-474-276-155-642-155-603 0-916 375-312 375-312 1097zm1447 2203z"/>
       <path id="DejaVuSans-63" transform="scale(.015625)" d="m3122 3366v-538q-244 135-489 202t-495 67q-560 0-870-355-309-354-309-995t309-996q310-354 870-354 250 0 495 67t489 202v-532q-241-112-499-168-257-57-548-57-791 0-1257 497-465 497-465 1341 0 856 470 1346 471 491 1290 491 265 0 518-55 253-54 491-163z"/>
       <path id="DejaVuSans-76" transform="scale(.015625)" d="m191 3500h609l1094-2937 1094 2937h609l-1313-3500h-781l-1312 3500z"/>
       <path id="DejaVuSans-61" transform="scale(.015625)" d="m2194 1759q-697 0-966-159t-269-544q0-306 202-486 202-179 548-179 479 0 768 339t289 901v128h-572zm1147 238v-1997h-575v531q-197-318-491-470t-719-152q-537 0-855 302-317 302-317 808 0 590 395 890 396 300 1180 300h807v57q0 397-261 614t-733 217q-300 0-585-72-284-72-546-216v532q315 122 612 182 297 61 578 61 760 0 1135-394 375-393 375-1193z"/>
       <path id="DejaVuSans-6c" transform="scale(.015625)" d="m603 4863h575v-4863h-575v4863z"/>
      </defs>
      <use xlink:href="#DejaVuSans-65"/>
      <use x="61.523438" xlink:href="#DejaVuSans-6e"/>
      <use x="124.902344" xlink:href="#DejaVuSans-74"/>
      <use x="164.111328" xlink:href="#DejaVuSans-72"/>
      <use x="202.974609" xlink:href="#DejaVuSans-6f"/>
      <use x="264.15625" xlink:href="#DejaVuSans-70"/>
      <use x="327.632812" xlink:href="#DejaVuSans-79"/>
      <use x="386.8125" xlink:href="#DejaVuSans-20"/>
      <use x="418.599609" xlink:href="#DejaVuSans-6f"/>
      <use x="479.78125" xlink:href="#DejaVuSans-66"/>
      <use x="514.986328" xlink:href="#DejaVuSans-20"/>
      <use x="546.773438" xlink:href="#DejaVuSans-74"/>
      <use x="585.982422" xlink:href="#DejaVuSans-68"/>
      <use x="649.361328" xlink:href="#DejaVuSans-65"/>
      <use x="710.884766" xlink:href="#DejaVuSans-20"/>
      <use x="742.671875" xlink:href="#DejaVuSans-64"/>
      <use x="806.148438" xlink:href="#DejaVuSans-69"/>
      <use x="833.931641" xlink:href="#DejaVuSans-73"/>
      <use x="886.03125" xlink:href="#DejaVuSans-74"/>
      <use x="925.240234" xlink:href="#DejaVuSans-72"/>
      <use x="966.353516" xlink:href="#DejaVuSans-69"/>
      <use x="994.136719" xlink:href="#DejaVuSans-62"/>
      <use x="1057.613281" xlink:href="#DejaVuSans-75"/>
      <use x="1120.992188" xlink:href="#DejaVuSans-74"/>
      <use x="1160.201172" xlink:href="#DejaVuSans-69"/>
      <use x="1187.984375" xlink:href="#DejaVuSans-6f"/>
      <use x="1249.166016" xlink:href="#DejaVuSans-6e"/>
      <use x="1312.544922" xlink:href="#DejaVuSans-20"/>
      <use x="1344.332031" xlink:href="#DejaVuSans-6f"/>
      <use x="1405.513672" xlink:href="#DejaVuSans-66"/>
      <use x="1440.71875" xlink:href="#DejaVuSans-20"/>
      <use x="1472.505859" xlink:href="#DejaVuSans-66"/>
      <use x="1507.710938" xlink:href="#DejaVuSans-75"/>
      <use x="1571.089844" xlink:href="#DejaVuSans-6e"/>
      <use x="1634.46875" xlink:href="#DejaVuSans-63"/>
      <use x="1689.449219" xlink:href="#DejaVuSans-74"/>
      <use x="1728.658203" xlink:href="#DejaVuSans-69"/>
      <use x="1756.441406" xlink:href="#DejaVuSans-6f"/>
      <use x="1817.623047" xlink:href="#DejaVuSans-6e"/>
      <use x="1881.001953" xlink:href="#DejaVuSans-20"/>
      <use x="1912.789062" xlink:href="#DejaVuSans-76"/>
      <use x="1971.96875" xlink:href="#DejaVuSans-61"/>
      <use x="2033.248047" xlink:href="#DejaVuSans-6c"/>
      <use x="2061.03125" xlink:href="#DejaVuSans-75"/>
      <use x="2124.410156" xlink:href="#DejaVuSans-65"/>
      <use x="2185.933594" xlink:href="#DejaVuSans-73"/>
     </g>
    </g>
   </g>
   <g id="matplotlib.axis_2">
    <g id="ytick_1">
     <g id="line2d_10">
      <defs>
       <path id="maa3e9f6506" d="m0 0h-3.5" stroke="#000" stroke-width=".8"/>
      </defs>
      <use x="57.6" y="307.584" stroke="#000000" stroke-width=".8" xlink:href="#maa3e9f6506"/>
     </g>
     <g id="text_11">
      <!-- 0.0 -->
      <g transform="translate(34.697 311.38) scale(.1 -.1)">
       <defs>
        <path id="DejaVuSans-2e" transform="scale(.015625)" d="m684 794h660v-794h-660v794z"/>
       </defs>
       <use xlink:href="#DejaVuSans-30"/>
       <use x="63.623047" xlink:href="#DejaVuSans-2e"/>
       <use x="95.410156" xlink:href="#DejaVuSans-30"/>
      </g>
     </g>
    </g>
    <g id="ytick_2">
     <g id="line2d_11">
      <use x="57.6" y="273.811727" stroke="#000000" stroke-width=".8" xlink:href="#maa3e9f6506"/>
     </g>
     <g id="text_12">
      <!-- 0.5 -->
      <g transform="translate(34.697 277.61) scale(.1 -.1)">
       <use xlink:href="#DejaVuSans-30"/>
       <use x="63.623047" xlink:href="#DejaVuSans-2e"/>
       <use x="95.410156" xlink:href="#DejaVuSans-35"/>
      </g>
     </g>
    </g>
    <g id="ytick_3">
     <g id="line2d_12">
      <use x="57.6" y="240.039454" stroke="#000000" stroke-width=".8" xlink:href="#maa3e9f6506"/>
     </g>
     <g id="text_13">
      <!-- 1.0 -->
      <g transform="translate(34.697 243.84) scale(.1 -.1)">
       <use xlink:href="#DejaVuSans-31"/>
       <use x="63.623047" xlink:href="#DejaVuSans-2e"/>
       <use x="95.410156" xlink:href="#DejaVuSans-30"/>
      </g>
     </g>
    </g>
    <g id="ytick_4">
     <g id="line2d_13">
      <use x="57.6" y="206.267181" stroke="#000000" stroke-width=".8" xlink:href="#maa3e9f6506"/>
     </g>
     <g id="text_14">
      <!-- 1.5 -->
      <g transform="translate(34.697 210.07) scale(.1 -.1)">
       <use xlink:href="#DejaVuSans-31"/>
       <use x="63.623047" xlink:href="#DejaVuSans-2e"/>
       <use x="95.410156" xlink:href="#DejaVuSans-35"/>
      </g>
     </g>
    </g>
    <g id="ytick_5">
     <g id="line2d_14">
      <use x="57.6" y="172.494907" stroke="#000000" stroke-width=".8" xlink:href="#maa3e9f6506"/>
     </g>
     <g id="text_15">
      <!-- 2.0 -->
      <g transform="translate(34.697 176.29) scale(.1 -.1)">
       <use xlink:href="#DejaVuSans-32"/>
       <use x="63.623047" xlink:href="#DejaVuSans-2e"/>
       <use x="95.410156" xlink:href="#DejaVuSans-30"/>
      </g>
     </g>
    </g>
    <g id="ytick_6">
     <g id="line2d_15">
      <use x="57.6" y="138.722634" stroke="#000000" stroke-width=".8" xlink:href="#maa3e9f6506"/>
     </g>
     <g id="text_16">
      <!-- 2.5 -->
      <g transform="translate(34.697 142.52) scale(.1 -.1)">
       <use xlink:href="#DejaVuSans-32"/>
       <use x="63.623047" xlink:href="#DejaVuSans-2e"/>
       <use x="95.410156" xlink:href="#DejaVuSans-35"/>
      </g>
     </g>
    </g>
    <g id="ytick_7">
     <g id="line2d_16">
      <use x="57.6" y="104.950361" stroke="#000000" stroke-width=".8" xlink:href="#maa3e9f6506"/>
     </g>
     <g id="text_17">
      <!-- 3.0 -->
      <g transform="translate(34.697 108.75) scale(.1 -.1)">
       <use xlink:href="#DejaVuSans-33"/>
       <use x="63.623047" xlink:href="#DejaVuSans-2e"/>
       <use x="95.410156" xlink:href="#DejaVuSans-30"/>
      </g>
     </g>
    </g>
    <g id="ytick_8">
     <g id="line2d_17">
      <use x="57.6" y="71.178088" stroke="#000000" stroke-width=".8" xlink:href="#maa3e9f6506"/>
     </g>
     <g id="text_18">
      <!-- 3.5 -->
      <g transform="translate(34.697 74.977) scale(.1 -.1)">
       <use xlink:href="#DejaVuSans-33"/>
       <use x="63.623047" xlink:href="#DejaVuSans-2e"/>
       <use x="95.410156" xlink:href="#DejaVuSans-35"/>
      </g>
     </g>
    </g>
    <g id="text_19">
     <!-- overhead [bits/key] -->
     <g transform="translate(28.617 223.13) rotate(-90) scale(.1 -.1)">
      <defs>
       <path id="DejaVuSans-5b" transform="scale(.015625)" d="m550 4863h1325v-447h-750v-4813h750v-447h-1325v5707z"/>
       <path id="DejaVuSans-2f" transform="scale(.015625)" d="m1625 4666h531l-1625-5260h-531l1625 5260z"/>
       <path id="DejaVuSans-6b" transform="scale(.015625)" d="m581 4863h578v-2872l1716 1509h734l-1856-1637 1935-1863h-750l-1779 1709v-1709h-578v4863z"/>
       <path id="DejaVuSans-5d" transform="scale(.015625)" d="m1947 4863v-5707h-1325v447h747v4813h-747v447h1325z"/>
      </defs>
      <use xlink:href="#DejaVuSans-6f"/>
      <use x="61.181641" xlink:href="#DejaVuSans-76"/>
      <use x="120.361328" xlink:href="#DejaVuSans-65"/>
      <use x="181.884766" xlink:href="#DejaVuSans-72"/>
      <use x="221.248047" xlink:href="#DejaVuSans-68"/>
      <use x="284.626953" xlink:href="#DejaVuSans-65"/>
      <use x="346.150391" xlink:href="#DejaVuSans-61"/>
      <use x="407.429688" xlink:href="#DejaVuSans-64"/>
      <use x="470.90625" xlink:href="#DejaVuSans-20"/>
      <use x="502.693359" xlink:href="#DejaVuSans-5b"/>
      <use x="541.707031" xlink:href="#DejaVuSans-62"/>
      <use x="605.183594" xlink:href="#DejaVuSans-69"/>
      <use x="632.966797" xlink:href="#DejaVuSans-74"/>
      <use x="672.175781" xlink:href="#DejaVuSans-73"/>
      <use x="724.275391" xlink:href="#DejaVuSans-2f"/>
      <use x="757.966797" xlink:href="#DejaVuSans-6b"/>
      <use x="812.251953" xlink:href="#DejaVuSans-65"/>
      <use x="873.775391" xlink:href="#DejaVuSans-79"/>
      <use x="932.955078" xlink:href="#DejaVuSans-5d"/>
     </g>
    </g>
   </g>
   <g id="line2d_18">
    <path d="m57.602 240.04 43.753 66.202 0.89338-66.193 43.752 66.201 0.89346-66.193 43.75 66.199 0.89298-66.193 43.75 66.198 0.89308-66.193 43.75 66.198 0.89288-66.194 43.75 66.198 0.89305-66.193 43.75 66.198 0.89304-66.193 44.611 67.501" clip-path="url(#p265772ad41)" fill="none" stroke="#000" stroke-dasharray="5.55,2.4" stroke-width="1.5"/>
   </g>
   <g id="line2d_19">
    <path d="m57.602 296.87 0.89332-0.084418 0.89283-0.38501 0.89287-0.51119 1.7861-1.4989 1.786-1.6305 3.5718-4.6479 0.89306-1.1814 5.3576-8.3489 0.89289-1.6313 1.7859-2.9532 0.89292-1.432 0.89294-1.7409 0.89282-1.3598 2.6788-4.6706 2.6788-4.5176 0.89288-1.4876 0.89285-0.97762 1.7856-3.1141 1.7857-2.6716 1.7857-2.0032 1.7857-2.4096 0.89286-0.88407 0.89286-1.056 2.6785-2.5762 0.89282-0.52578 0.89282-1.0453 1.7856-1.581 0.89338-38.537 1.7861-0.99003 2.6789-1.745 0.89308-0.96482 2.679-1.7389 0.89286-0.90884 1.7857-1.1122 0.89294-0.64296 0.89287-0.23806 0.89291-1.0176 0.89292-0.42507 0.89293-0.70388 1.7857-1.1081 2.6785-1.5851 1.7857-1.0567 0.89283-0.76211 1.7856-0.90046 1.7856-0.85884 1.786 0.83098 0.89283 0.60582 0.8929-0.15146 1.786 0.52102 0.8929 0.071062 0.89294 0.32809 2.6786-0.011623 0.89289 0.23828 0.89284 0.10812 2.6785 0.022882 0.89283 0.21258 0.89284-0.38788 0.89281-0.17311 0.89281 0.19908 0.89346-56.154 0.89311 0.87971 0.89284 0.48049 0.89289 0.82264 0.89285 0.31948 0.89283 0.068993 0.89285 0.42838 0.89284 0.12942 0.8929 0.47845 1.7857 0.14961 0.89286 0.73275 0.89285-0.30251 0.89284 0.14777 0.89283-0.14399 0.89282 0.20078 0.8928-0.35976 1.7857 1.6554 0.89284 0.81898 0.89289 0.29894 0.89291 0.87855 0.89291 0.65767 1.7857 0.71997 0.89282 0.68555 0.89281 0.13442 1.7856 0.67828 0.89281-0.028776 0.89305 0.73975 0.893 1.0491 0.89285 0.57661 2.6787 2.4731 0.89285 0.35219 0.89282 0.62115 2.6785 1.484 1.786 1.7156 0.89291 1.24 0.8928 0.37847 0.89282 0.88434 0.8929 0.63687 0.89287 0.89462 0.89281 0.49902 0.8928 0.71932 0.89298-62.575 0.89294 1.6591 1.7859 1.4334 0.89282 1.2256 2.6785 1.4828 0.89281 0.7597 0.89295 0.44971 1.7857 2.2946 2.6786 2.6633 1.7856 0.86995 0.89294 1.1561 3.5715 3.8055 1.7857 1.396 0.8928 1.1513 1.7858 1.9316 0.89285 0.58213 0.89282 1.2157 0.8928 0.70961 1.7857 2.3309 0.8929 0.74135 0.89284 1.2542 1.7856 1.4172 4.4641 5.1175 0.8929 0.82418 1.7857 2.4476 0.89281 0.87863 0.89281 0.68228 0.89285 1.1217 0.89284 1.4767 0.89283 0.8132 0.89285 1.0181 0.89308-64.223 1.7857 2.386 0.89287 0.70725 0.89282 1.001 0.89296 1.2725 0.89283 0.62867 0.8928 1.3222 0.89281 0.90228 0.89299 1.3778 0.8929 1.1362 0.89282 0.90456 0.89282 0.74588 0.89289 0.93321 0.89285 1.3318 0.89281 1.1313 0.89281 0.89423 0.89292 1.365 1.7857 2.3422 0.89289 0.72922 0.89289 1.2473 0.89282 0.94304 1.7858 2.5676 0.89286 0.81199 1.7856 2.4638 2.6786 3.2526 0.89284 1.2495 0.89281 1.0129 1.7858 2.3193 0.89311 1.0884 0.89284 1.3316 4.4642 5.693 0.89284 1.3085 0.89288 0.97102 0.89284 1.2888 0.89282 0.94234 2.6785 3.6742 0.89288 0.99024 0.89288-65.184 1.7857 2.6253 0.89285 0.83444 0.89284 1.4378 3.5715 4.7954 1.7857 2.4828 0.8929 0.94172 0.89281 1.4593 0.89288 0.97052 0.8928 1.1978 0.89287 1.4037 0.8928 0.94843 2.6787 3.8883 0.89291 0.98437 5.3571 7.4851 5.357 7.2954 1.7857 2.6578 0.89305 1.134 0.89286 1.4073 0.89288 1.0425 0.89288 1.4859 0.89281 1.013 2.6785 4.0477 0.893 0.9367 2.6785 4.0226 1.7857 2.2965 0.89301 1.3648 0.89305-65.825 0.89282 1.149 0.89283 1.6095 1.7857 2.2119 0.89281 1.466 0.89286 1.1592 0.89286 1.4303 0.89289 1.0019 24.107 34.674 0.8929 1.5931 0.89281 1.1287 0.89284 1.4953 1.7857 2.2399 0.89304 1.4981 1.7858 2.3471 2.6786 4.0546 1.7857 2.4597 0.89286 1.2569 0.89304-65.862 1.7857 2.5559 0.89289 1.6628 0.89293 0.90121 7.143 10.873 0.89293 1.004 6.25 9.1203 1.7857 2.8081 2.6786 3.8633 0.89282 1.3974 0.89298 1.0574 0.89285 1.7817 0.89284 0.89236 0.89284 1.5236 2.6786 3.9301 1.7859 2.7616 2.6785 3.5471 0.8928 1.7161 1.7857 2.3931 0.89282 1.5285 0.89284 1.1426 5.3571 7.9366 0.86097 1.5849v0" clip-path="url(#p265772ad41)" fill="none" stroke="#1f77b4" stroke-linecap="square" stroke-width="1.5"/>
   </g>
   <g id="line2d_20">
    <path d="m57.602 224.47 43.753 66.218 0.89338-81.736 43.752 66.212 0.89346-81.732 43.75 66.203 0.89298-81.732 43.75 66.2 0.89308-81.727 43.75 66.195 0.89288-81.729 43.75 66.198 0.89305-81.728 43.75 66.201 0.89304-81.729 44.611 67.5v0" clip-path="url(#p265772ad41)" fill="none" stroke="#ff7f0e" stroke-linecap="square" stroke-width="1.5"/>
   </g>
   <g id="patch_3">
    <path d="m57.6 307.58v-266.11" fill="none" stroke="#000" stroke-linecap="square" stroke-width=".8"/>
   </g>
   <g id="patch_4">
    <path d="m414.72 307.58v-266.11" fill="none" stroke="#000" stroke-linecap="square" stroke-width=".8"/>
   </g>
   <g id="patch_5">
    <path d="m57.6 307.58h357.12" fill="none" stroke="#000" stroke-linecap="square" stroke-width=".8"/>
   </g>
   <g id="patch_6">
    <path d="m57.6 41.472h357.12" fill="none" stroke="#000" stroke-linecap="square" stroke-width=".8"/>
   </g>
   <g id="text_20">
    <!-- Absolute space overhead for equal distribution -->
    <g transform="translate(95.454 35.472) scale(.12 -.12)">
     <defs>
      <path id="DejaVuSans-41" transform="scale(.015625)" d="m2188 4044-857-2322h1716l-859 2322zm-357 622h716l1778-4666h-656l-425 1197h-2103l-425-1197h-666l1781 4666z"/>
      <path id="DejaVuSans-71" transform="scale(.015625)" d="m947 1747q0-634 261-995t717-361 718 361q263 361 263 995t-263 995q-262 361-718 361t-717-361-261-995zm1959-1222q-181-312-458-464-276-152-664-152-634 0-1033 506-398 507-398 1332t398 1331q399 506 1033 506 388 0 664-152 277-151 458-463v531h575v-4831h-575v1856z"/>
     </defs>
     <use xlink:href="#DejaVuSans-41"/>
     <use x="68.408203" xlink:href="#DejaVuSans-62"/>
     <use x="131.884766" xlink:href="#DejaVuSans-73"/>
     <use x="183.984375" xlink:href="#DejaVuSans-6f"/>
     <use x="245.166016" xlink:href="#DejaVuSans-6c"/>
     <use x="272.949219" xlink:href="#DejaVuSans-75"/>
     <use x="336.328125" xlink:href="#DejaVuSans-74"/>
     <use x="375.537109" xlink:href="#DejaVuSans-65"/>
     <use x="437.060547" xlink:href="#DejaVuSans-20"/>
     <use x="468.847656" xlink:href="#DejaVuSans-73"/>
     <use x="520.947266" xlink:href="#DejaVuSans-70"/>
     <use x="584.423828" xlink:href="#DejaVuSans-61"/>
     <use x="645.703125" xlink:href="#DejaVuSans-63"/>
     <use x="700.683594" xlink:href="#DejaVuSans-65"/>
     <use x="762.207031" xlink:href="#DejaVuSans-20"/>
     <use x="793.994141" xlink:href="#DejaVuSans-6f"/>
     <use x="855.175781" xlink:href="#DejaVuSans-76"/>
     <use x="914.355469" xlink:href="#DejaVuSans-65"/>
     <use x="975.878906" xlink:href="#DejaVuSans-72"/>
     <use x="1015.242188" xlink:href="#DejaVuSans-68"/>
     <use x="1078.621094" xlink:href="#DejaVuSans-65"/>
     <use x="1140.144531" xlink:href="#DejaVuSans-61"/>
     <use x="1201.423828" xlink:href="#DejaVuSans-64"/>
     <use x="1264.900391" xlink:href="#DejaVuSans-20"/>
     <use x="1296.6875" xlink:href="#DejaVuSans-66"/>
     <use x="1331.892578" xlink:href="#DejaVuSans-6f"/>
     <use x="1393.074219" xlink:href="#DejaVuSans-72"/>
     <use x="1434.1875" xlink:href="#DejaVuSans-20"/>
     <use x="1465.974609" xlink:href="#DejaVuSans-65"/>
     <use x="1527.498047" xlink:href="#DejaVuSans-71"/>
     <use x="1590.974609" xlink:href="#DejaVuSans-75"/>
     <use x="1654.353516" xlink:href="#DejaVuSans-61"/>
     <use x="1715.632812" xlink:href="#DejaVuSans-6c"/>
     <use x="1743.416016" xlink:href="#DejaVuSans-20"/>
     <use x="1775.203125" xlink:href="#DejaVuSans-64"/>
     <use x="1838.679688" xlink:href="#DejaVuSans-69"/>
     <use x="1866.462891" xlink:href="#DejaVuSans-73"/>
     <use x="1918.5625" xlink:href="#DejaVuSans-74"/>
     <use x="1957.771484" xlink:href="#DejaVuSans-72"/>
     <use x="1998.884766" xlink:href="#DejaVuSans-69"/>
     <use x="2026.667969" xlink:href="#DejaVuSans-62"/>
     <use x="2090.144531" xlink:href="#DejaVuSans-75"/>
     <use x="2153.523438" xlink:href="#DejaVuSans-74"/>
     <use x="2192.732422" xlink:href="#DejaVuSans-69"/>
     <use x="2220.515625" xlink:href="#DejaVuSans-6f"/>
     <use x="2281.697266" xlink:href="#DejaVuSans-6e"/>
    </g>
   </g>
   <g id="legend_1">
    <g id="patch_7">
     <path d="m64.6 93.506h196.56q2 0 2-2v-43.034q0-2-2-2h-196.56q-2 0-2 2v43.034q0 2 2 2z" fill="#fff" opacity=".8" stroke="#ccc"/>
    </g>
    <g id="line2d_21">
     <path d="m66.6 54.57h10 10" fill="none" stroke="#000" stroke-dasharray="5.55,2.4" stroke-width="1.5"/>
    </g>
    <g id="text_21">
     <!-- (uncompressed) vector of values -->
     <g transform="translate(94.6 58.07) scale(.1 -.1)">
      <defs>
       <path id="DejaVuSans-28" transform="scale(.015625)" d="m1984 4856q-418-718-622-1422-203-703-203-1425 0-721 205-1429t620-1424h-500q-468 735-701 1444t-233 1409q0 697 231 1403 232 707 703 1444h500z"/>
       <path id="DejaVuSans-6d" transform="scale(.015625)" d="m3328 2828q216 388 516 572t706 184q547 0 844-383 297-382 297-1088v-2113h-578v2094q0 503-179 746-178 244-543 244-447 0-707-297-259-296-259-809v-1978h-578v2094q0 506-178 748t-550 242q-441 0-701-298-259-298-259-808v-1978h-578v3500h578v-544q197 322 472 475t653 153q382 0 649-194 267-193 395-562z"/>
       <path id="DejaVuSans-29" transform="scale(.015625)" d="m513 4856h500q468-737 701-1444 233-706 233-1403 0-700-233-1409t-701-1444h-500q415 716 620 1424t205 1429q0 722-205 1425-205 704-620 1422z"/>
      </defs>
      <use xlink:href="#DejaVuSans-28"/>
      <use x="39.013672" xlink:href="#DejaVuSans-75"/>
      <use x="102.392578" xlink:href="#DejaVuSans-6e"/>
      <use x="165.771484" xlink:href="#DejaVuSans-63"/>
      <use x="220.751953" xlink:href="#DejaVuSans-6f"/>
      <use x="281.933594" xlink:href="#DejaVuSans-6d"/>
      <use x="379.345703" xlink:href="#DejaVuSans-70"/>
      <use x="442.822266" xlink:href="#DejaVuSans-72"/>
      <use x="481.685547" xlink:href="#DejaVuSans-65"/>
      <use x="543.208984" xlink:href="#DejaVuSans-73"/>
      <use x="595.308594" xlink:href="#DejaVuSans-73"/>
      <use x="647.408203" xlink:href="#DejaVuSans-65"/>
      <use x="708.931641" xlink:href="#DejaVuSans-64"/>
      <use x="772.408203" xlink:href="#DejaVuSans-29"/>
      <use x="811.421875" xlink:href="#DejaVuSans-20"/>
      <use x="843.208984" xlink:href="#DejaVuSans-76"/>
      <use x="902.388672" xlink:href="#DejaVuSans-65"/>
      <use x="963.912109" xlink:href="#DejaVuSans-63"/>
      <use x="1018.892578" xlink:href="#DejaVuSans-74"/>
      <use x="1058.101562" xlink:href="#DejaVuSans-6f"/>
      <use x="1119.283203" xlink:href="#DejaVuSans-72"/>
      <use x="1160.396484" xlink:href="#DejaVuSans-20"/>
      <use x="1192.183594" xlink:href="#DejaVuSans-6f"/>
      <use x="1253.365234" xlink:href="#DejaVuSans-66"/>
      <use x="1288.570312" xlink:href="#DejaVuSans-20"/>
      <use x="1320.357422" xlink:href="#DejaVuSans-76"/>
      <use x="1379.537109" xlink:href="#DejaVuSans-61"/>
      <use x="1440.816406" xlink:href="#DejaVuSans-6c"/>
      <use x="1468.599609" xlink:href="#DejaVuSans-75"/>
      <use x="1531.978516" xlink:href="#DejaVuSans-65"/>
      <use x="1593.501953" xlink:href="#DejaVuSans-73"/>
     </g>
    </g>
    <g id="line2d_22">
     <path d="m66.6 69.249h10 10" fill="none" stroke="#1f77b4" stroke-linecap="square" stroke-width="1.5"/>
    </g>
    <g id="text_22">
     <!-- fp::Map -->
     <g transform="translate(94.6 72.749) scale(.1 -.1)">
      <defs>
       <path id="DejaVuSans-3a" transform="scale(.015625)" d="m750 794h659v-794h-659v794zm0 2515h659v-793h-659v793z"/>
       <path id="DejaVuSans-4d" transform="scale(.015625)" d="m628 4666h941l1190-3175 1197 3175h941v-4666h-616v4097l-1203-3200h-634l-1203 3200v-4097h-613v4666z"/>
      </defs>
      <use xlink:href="#DejaVuSans-66"/>
      <use x="35.205078" xlink:href="#DejaVuSans-70"/>
      <use x="98.681641" xlink:href="#DejaVuSans-3a"/>
      <use x="132.373047" xlink:href="#DejaVuSans-3a"/>
      <use x="166.064453" xlink:href="#DejaVuSans-4d"/>
      <use x="252.34375" xlink:href="#DejaVuSans-61"/>
      <use x="313.623047" xlink:href="#DejaVuSans-70"/>
     </g>
    </g>
    <g id="line2d_23">
     <path d="m66.6 83.927h10 10" fill="none" stroke="#ff7f0e" stroke-linecap="square" stroke-width="1.5"/>
    </g>
    <g id="text_23">
     <!-- ls::Map -->
     <g transform="translate(94.6 87.427) scale(.1 -.1)">
      <use xlink:href="#DejaVuSans-6c"/>
      <use x="27.783203" xlink:href="#DejaVuSans-73"/>
      <use x="79.882812" xlink:href="#DejaVuSans-3a"/>
      <use x="113.574219" xlink:href="#DejaVuSans-3a"/>
      <use x="147.265625" xlink:href="#DejaVuSans-4d"/>
      <use x="233.544922" xlink:href="#DejaVuSans-61"/>
      <use x="294.824219" xlink:href="#DejaVuSans-70"/>
     </g>
    </g>
   </g>
  </g>
 </g>
 <defs>
  <clipPath id="p265772ad41">
   <rect x="57.6" y="41.472" width="357.12" height="266.11"/>
  </clipPath>
 </defs>
</svg>
